<svg width="86" height="86" viewBox="0 0 86 86" fill="none" xmlns="http://www.w3.org/2000/svg">
<path d="M29.7336 2.40091C15.2003 7.60091 6.00028 17.3342 1.73362 31.8676C-2.13305 45.4676 2.26695 62.2676 12.667 72.6676C28.9336 88.8009 56.4003 88.8009 72.667 72.6676C84.8003 60.4009 88.4003 40.5342 81.2003 25.2009C72.0003 5.73424 49.067 -4.53243 29.7336 2.40091ZM49.2003 17.3342C54.9336 20.4009 53.3336 28.0009 46.9336 28.0009C40.0003 28.0009 37.6003 21.8676 42.9336 18.1342C46.4003 15.6009 46.1336 15.6009 49.2003 17.3342ZM46.4003 36.2676C48.5336 38.4009 48.4003 44.4009 46.1336 53.0676C43.867 61.4676 44.4003 64.0009 48.8003 64.0009C50.5336 64.0009 52.0003 64.5342 52.0003 65.2009C52.0003 66.9342 42.5336 68.9342 38.8003 68.0009C33.2003 66.6676 32.5336 63.8676 35.2003 52.8009C38.0003 42.0009 37.467 38.6676 33.3336 38.6676C30.0003 38.6676 29.7336 36.4009 33.067 35.6009C37.7336 34.4009 44.8003 34.6676 46.4003 36.2676Z" fill="#153243"/>
</svg>
