<svg width="512" height="512" viewBox="0 0 512 512" fill="none" xmlns="http://www.w3.org/2000/svg">
<g clip-path="url(#clip0_2526_393)">
<path d="M482 1.83923C477.6 2.71923 473.84 3.67923 473.6 3.99923C473.36 4.31923 470 5.19923 466 5.91923C462.08 6.71923 458.48 7.59923 458 7.91923C457.6 8.23923 454 9.19923 450 9.99923C446.08 10.7992 442.64 11.6792 442.4 11.9992C442.16 12.3192 438.56 13.1992 434.4 13.9992C430.24 14.7992 426.64 15.6792 426.4 15.9992C426.16 16.3192 422.56 17.1992 418.4 17.9992C414.24 18.7992 410.64 19.6792 410.4 19.9992C410.16 20.3192 406.8 21.1992 402.8 21.9192C398.88 22.7192 395.28 23.5992 394.8 23.9192C394.4 24.2392 390.8 25.1992 386.8 25.9992C382.88 26.7992 379.28 27.6792 378.8 27.9992C378.4 28.3992 374.96 29.2792 371.2 29.9992C367.44 30.7192 364.08 31.5992 363.6 31.9992C363.2 32.3192 359.6 33.1992 355.6 33.9192C351.68 34.7192 348.08 35.5992 347.6 35.9192C347.2 36.3192 343.6 37.1992 339.6 37.9192C335.68 38.7192 332.08 39.5992 331.6 39.9192C331.2 40.2392 327.6 41.1992 323.6 41.9992C319.68 42.7992 316.08 43.6792 315.6 43.9992C315.2 44.3992 311.76 45.2792 308 45.9992C304.24 46.7192 300.88 47.5992 300.4 47.9992C300 48.3192 296.4 49.1992 292.4 49.9992C288.48 50.7992 285.04 51.7592 284.8 51.9992C284.56 52.3192 280.96 53.1992 276.8 53.9992C272.64 54.7992 269.04 55.6792 268.8 55.9992C268.56 56.3192 264.96 57.1992 260.8 57.9992C256.64 58.7992 253.04 59.6792 252.8 59.9992C252.56 60.3192 249.2 61.1992 245.2 61.9192C241.28 62.7192 237.68 63.5992 237.2 63.9192C236.8 64.2392 233.2 65.1992 229.2 65.9992C225.28 66.7992 221.84 67.6792 221.6 67.9992C221.36 68.3192 217.76 69.1992 213.6 69.9992C209.44 70.7992 205.84 71.6792 205.6 71.9992C205.36 72.3192 201.76 73.1992 197.6 73.9992C193.44 74.7992 189.84 75.6792 189.6 75.9992C189.36 76.3192 186 77.1992 182 77.9192C178.08 78.7192 174.48 79.5992 174 79.9992C173.6 80.3192 171.68 80.8792 169.84 81.1992L166.4 81.7592V217.359V352.959L163.68 350.879C162.16 349.759 160.56 348.799 160.08 348.799C159.6 348.799 159.2 348.479 159.2 347.999C159.2 347.599 158 346.639 156.56 345.919C155.2 345.199 153.84 344.319 153.6 343.999C152.88 343.039 141.28 337.759 138.4 337.199C136.88 336.879 135.36 336.239 135.12 335.839C134.56 334.959 123.36 332.879 119.04 332.799C117.44 332.799 115.84 332.399 115.6 331.999C115.04 331.039 101.04 330.879 100.48 331.919C100.24 332.239 97.3604 332.799 94.0004 333.039C87.7604 333.599 81.0404 334.959 79.6004 335.999C79.2004 336.319 76.7204 337.199 74.1604 337.919C71.6804 338.639 69.6004 339.519 69.6004 339.839C69.6004 340.239 67.8404 341.119 65.6004 341.919C63.4404 342.719 61.6004 343.599 61.6004 343.919C61.6004 344.319 60.1604 345.199 58.4004 345.999C56.6404 346.799 55.2004 347.679 55.2004 347.919C55.2004 348.239 54.1604 349.039 52.9604 349.839C49.8404 351.599 37.6004 363.519 37.6004 364.639C37.6004 365.119 36.8804 365.919 36.0004 366.399C35.1204 366.879 34.4004 367.759 34.4004 368.319C34.4004 368.959 33.8404 369.839 33.1204 370.479C32.4804 371.039 31.1204 372.959 30.2404 374.719C29.3604 376.559 28.3204 378.159 28.0004 378.399C27.6804 378.639 26.8004 380.479 26.0004 382.639C25.2004 384.719 24.2404 386.399 23.9204 386.399C23.5204 386.399 23.2004 386.879 23.2004 387.519C23.2004 388.879 20.8804 396.719 19.9204 398.559C18.5604 401.119 17.5204 411.519 17.4404 421.999C17.4404 431.999 18.7204 444.799 19.9204 445.599C20.2404 445.839 20.8804 447.919 21.4404 450.239C21.9204 452.479 23.4404 456.719 24.8004 459.599C26.0804 462.399 27.2004 465.119 27.2004 465.599C27.2004 465.999 27.6004 466.399 28.0004 466.399C28.4804 466.399 29.3604 467.839 30.0804 469.599C30.8004 471.359 31.6004 472.799 31.9204 472.799C32.2404 472.799 33.0404 473.839 33.8404 475.119C35.6004 478.159 39.5204 482.719 44.0004 486.959C46.0004 488.879 48.4804 491.279 49.6004 492.399C50.7204 493.519 52.0804 494.399 52.5604 494.399C53.1204 494.399 53.8404 494.879 54.1604 495.439C54.4804 496.079 56.0804 497.199 57.6004 498.079C59.1204 498.879 61.0404 500.239 61.9204 501.039C62.8004 501.759 63.8404 502.399 64.1604 502.399C64.5604 502.399 67.2004 503.439 70.0004 504.799C72.8004 506.079 75.6804 507.199 76.4004 507.199C77.0404 507.199 77.6004 507.519 77.6004 507.839C77.6004 508.239 80.7204 509.199 84.6404 510.079C94.6404 512.239 121.52 512.239 130.8 510.079C134.32 509.279 137.36 508.319 137.6 508.079C137.84 507.759 140.08 506.879 142.64 506.159C145.12 505.359 147.2 504.479 147.2 504.079C147.2 503.759 148.48 503.039 150 502.479C151.52 501.919 153.28 501.039 153.84 500.559C154.4 499.999 156.08 498.879 157.6 498.079C159.12 497.199 160.56 496.319 160.8 496.079C161.04 495.839 162.64 494.559 164.32 493.279C170.56 488.639 183.2 474.479 183.2 472.079C183.2 471.599 183.52 471.199 183.92 471.199C184.8 471.199 191.2 458.399 191.2 456.639C191.2 455.919 191.52 455.199 192 455.039C192.72 454.799 195.2 446.319 195.2 443.919C195.2 443.119 195.52 442.399 196 442.239C198 441.599 198.4 420.479 198.4 314.799C198.4 254.479 198.72 204.799 199.04 204.319C199.36 203.839 203.04 202.799 207.2 201.999C211.36 201.199 214.96 200.319 215.2 199.999C215.44 199.679 219.04 198.799 223.2 197.999C227.36 197.199 230.96 196.319 231.2 195.999C231.44 195.679 234.88 194.799 238.8 194.079C242.8 193.279 246.4 192.399 246.8 192.079C247.28 191.759 250.88 190.799 254.8 189.999C258.8 189.199 262.4 188.319 262.8 187.999C263.28 187.599 266.88 186.719 270.8 185.919C274.8 185.199 278.16 184.319 278.4 183.999C278.64 183.679 282.24 182.799 286.4 181.999C290.56 181.199 294.16 180.319 294.4 179.999C294.64 179.679 298.24 178.799 302.4 177.999C306.56 177.199 310.16 176.319 310.4 175.999C310.64 175.679 314.08 174.799 318 174.079C322 173.279 325.6 172.399 326 171.999C326.48 171.679 330.08 170.799 334 169.999C338 169.199 341.36 168.239 341.6 167.999C341.84 167.679 345.44 166.799 349.6 165.999C353.76 165.199 357.36 164.319 357.6 163.999C357.84 163.679 361.28 162.799 365.2 162.079C369.2 161.279 372.8 160.399 373.2 160.079C373.68 159.679 377.28 158.799 381.2 158.079C385.2 157.279 388.8 156.399 389.2 156.079C389.68 155.759 393.28 154.799 397.2 153.999C401.2 153.199 404.56 152.319 404.8 151.999C405.04 151.679 408.48 150.799 412.4 150.079C416.4 149.279 420 148.399 420.4 148.079C420.88 147.679 424.4 146.799 428.32 146.079C432.24 145.279 436 144.399 436.72 143.999C437.44 143.599 440.88 142.719 444.4 141.999C447.92 141.279 451.52 140.399 452.4 139.999C454.16 139.279 461.04 137.599 462.32 137.599C462.96 137.599 463.2 159.439 463.2 209.359C463.2 249.119 462.88 280.719 462.48 280.159C462.16 279.519 461.12 278.639 460.24 278.159C459.36 277.599 456.4 275.679 453.76 273.839C451.04 271.999 447.6 270.079 446.08 269.519C444.48 268.959 443.2 268.239 443.2 267.919C443.2 267.519 441.12 266.639 438.64 265.839C436.08 265.119 433.84 264.239 433.6 263.919C433.04 263.199 421.12 260.799 417.92 260.799C416.4 260.799 415.2 260.399 415.2 259.999C415.2 259.519 411.12 259.199 404.48 259.199C398.16 259.199 393.52 259.519 393.2 259.999C392.96 260.399 391.68 260.799 390.4 260.799C387.36 260.799 375.68 263.279 375.2 263.999C374.96 264.319 372.72 265.199 370.24 265.919C367.68 266.639 365.6 267.519 365.6 267.839C365.6 268.239 363.84 269.119 361.68 269.919C359.52 270.639 357.52 271.839 357.28 272.479C357.04 273.119 356.32 273.599 355.76 273.599C353.44 273.599 341.28 283.919 335.84 290.559C334.56 291.999 332.72 294.239 331.6 295.599C330.48 296.879 329.36 298.639 329.12 299.359C328.88 300.159 328.4 300.799 328 300.799C327.6 300.799 327.04 301.599 326.8 302.479C326.48 303.439 325.2 305.839 323.92 307.839C322.72 309.759 321.44 312.479 321.12 313.919C320.88 315.279 320.32 316.559 319.92 316.799C319.2 317.279 316.8 325.919 316.8 328.079C316.8 328.879 316.48 329.599 316.08 329.759C314.48 330.319 313.44 349.599 314.4 360.079C314.88 365.519 315.68 370.079 316.08 370.239C316.48 370.399 316.8 371.119 316.8 371.919C316.8 373.919 319.2 382.639 319.84 383.199C320.16 383.439 320.88 385.039 321.52 386.799C322.08 388.559 323.36 391.279 324.4 392.799C325.36 394.319 326.4 396.399 326.72 397.439C327.04 398.399 327.6 399.199 328 399.199C328.4 399.199 328.88 399.839 329.12 400.559C329.36 401.359 330.48 403.039 331.6 404.399C335.92 409.599 338.88 412.879 341.2 415.039C342.48 416.239 344.56 418.159 345.68 419.359C346.88 420.639 348.16 421.599 348.56 421.599C348.88 421.679 350.48 422.719 352 423.999C353.52 425.359 355.12 426.399 355.68 426.399C356.16 426.399 357.12 427.039 357.92 427.839C358.64 428.719 360.64 429.839 362.4 430.399C364.16 430.959 365.6 431.759 365.6 432.079C365.6 432.479 367.68 433.359 370.24 434.079C372.72 434.799 375.2 435.679 375.68 436.079C376.8 437.039 387.44 439.199 390.88 439.199C392.4 439.199 393.6 439.519 393.6 439.999C393.6 440.479 397.76 440.799 404.4 440.799C411.04 440.799 415.2 440.479 415.2 439.999C415.2 439.519 416.24 439.199 417.52 439.199C420.72 439.199 433.12 436.799 433.6 436.079C433.84 435.759 436.08 434.879 438.64 434.079C441.12 433.279 443.2 432.399 443.2 432.079C443.2 431.759 444.64 430.959 446.48 430.399C448.32 429.759 449.92 428.799 450.16 428.239C450.4 427.679 451.04 427.199 451.6 427.199C452.24 427.199 454.32 425.919 456.32 424.399C458.4 422.879 460.24 421.599 460.48 421.599C460.88 421.599 473.76 408.639 475.92 405.919C478.32 403.119 482.4 396.799 482.4 396.079C482.4 395.679 482.88 394.799 483.44 394.239C484 393.679 485.12 391.599 485.92 389.599C486.72 387.599 487.6 385.839 487.92 385.599C488.56 385.119 491.2 376.719 491.2 374.959C491.2 374.319 491.52 373.599 491.92 373.439C494.56 372.479 494.72 363.119 494.96 180.559L495.28 -0.000769813L492.64 0.0792302C491.2 0.15923 486.4 0.87923 482 1.83923Z" fill="#153243"/>
</g>
<defs>
<clipPath id="clip0_2526_393">
<rect width="512" height="512" fill="white"/>
</clipPath>
</defs>
</svg>
