<svg width="781" height="781" viewBox="0 0 781 781" fill="none" xmlns="http://www.w3.org/2000/svg">
<path d="M72.2425 81.1504C61.7479 91.7671 61.0157 92.8654 62.358 95.4281C63.0902 96.8924 203.426 237.716 374.148 408.438C608.57 642.86 685.206 718.764 687.28 718.764C690.697 718.764 711.442 698.262 711.442 694.846C711.442 693.381 685.694 666.778 644.691 625.776C592.95 574.035 578.306 558.659 579.282 557.438C581.601 554.632 584.53 542.795 584.53 536.083C584.53 532.544 585.14 529.615 585.75 529.615C586.604 529.615 586.97 462.742 586.97 331.314V133.014H582.943C580.747 133.014 578.428 133.502 577.818 134.112C577.086 134.722 569.764 136.186 561.344 137.285C552.924 138.505 545.602 139.847 544.87 140.336C544.259 140.824 536.205 142.166 527.175 143.386C518.145 144.607 510.457 145.949 510.091 146.437C509.725 146.925 502.403 148.268 493.616 149.488C484.952 150.586 477.508 151.929 477.142 152.417C476.776 152.905 469.088 154.247 460.058 155.467C451.028 156.688 443.096 158.152 442.363 158.64C441.753 159.128 434.065 160.471 425.279 161.691C416.615 162.911 408.927 164.254 408.195 164.742C407.584 165.23 399.896 166.572 391.11 167.793C382.446 169.013 375.002 170.477 374.636 170.843C374.27 171.331 366.582 172.674 357.552 173.894C348.521 175.114 340.589 176.457 339.857 176.945C339.247 177.433 331.803 178.775 323.383 179.996C314.963 181.216 307.641 182.558 306.909 183.046C306.298 183.535 298.244 184.877 289.214 186.097C280.184 187.318 272.496 188.66 272.13 189.148C271.764 189.636 266.15 190.734 259.683 191.589L247.723 193.175V210.992V228.808L168.037 149.122C115.564 96.6484 87.6185 69.5574 86.0321 69.5574C84.5677 69.5574 78.9543 74.3166 72.2425 81.1504ZM552.802 380.859V485.928L548.897 485.196C539.134 483.487 523.392 483.121 514.362 484.342L504.599 485.684L418.933 400.018C371.707 352.792 333.145 313.864 333.145 313.376C333.145 312.766 334.976 312.4 337.172 312.4C339.369 312.4 341.688 311.911 342.42 311.301C343.03 310.813 351.206 309.349 360.602 308.129C369.999 306.908 378.297 305.566 378.907 305.078C379.639 304.59 387.571 303.125 396.602 302.027C405.632 300.807 413.32 299.464 413.686 298.976C414.052 298.61 421.984 297.268 431.381 296.047C440.777 294.827 449.075 293.363 449.685 292.875C450.417 292.386 458.594 291.044 467.99 289.824C477.386 288.604 485.318 287.261 485.684 286.773C486.051 286.407 493.983 285.065 503.379 283.722C512.775 282.502 521.318 281.038 522.294 280.427C523.88 279.573 543.649 276.4 550.727 275.912C552.68 275.79 552.802 281.526 552.802 380.859Z" fill="#153243"/>
<path d="M248.577 319.355C248.089 319.721 247.723 368.046 247.723 426.743V533.276L242.598 532.544C239.669 532.056 237.228 531.201 236.984 530.591C236.374 529.249 211.968 529.249 210.504 530.591C209.771 531.201 205.5 532.3 200.863 533.154C196.226 534.008 189.026 536.205 184.755 538.279C180.484 540.232 176.457 541.818 175.725 541.818C175.115 541.818 174.504 542.306 174.504 542.916C174.504 543.526 173.284 544.503 171.82 544.991C167.671 546.211 159.495 552.435 151.562 560.367C142.776 569.153 138.383 575.133 136.675 580.38C135.82 582.699 134.844 584.529 134.234 584.529C132.892 584.529 130.817 593.315 129.963 602.834C128.987 611.864 131.793 627.362 134.844 630.413C135.82 631.389 136.675 632.853 136.675 633.586C136.675 634.928 144.607 642.86 150.22 647.009C151.685 648.229 154.979 649.816 157.298 650.548C159.739 651.402 161.935 652.5 162.301 652.989C162.667 653.599 168.281 654.697 174.87 655.429C186.952 656.894 207.209 655.551 212.09 652.866C213.188 652.256 217.337 650.914 221.242 649.694C225.025 648.595 228.198 647.253 228.198 646.887C228.198 646.399 231.005 645.056 234.3 643.714C237.717 642.372 240.401 640.907 240.401 640.419C240.401 640.053 241.377 639.321 242.598 638.955C243.696 638.589 246.381 636.758 248.333 635.05C250.408 633.341 253.215 631.023 254.679 630.047C258.096 627.85 269.567 613.572 273.228 607.105C276.522 601.369 279.451 592.583 279.451 588.068C279.451 586.359 280.183 584.285 281.038 583.553C282.136 582.332 282.624 556.828 282.868 466.525L283.234 351.083L266.76 334.853C257.852 325.823 250.164 318.501 249.92 318.501C249.554 318.501 248.943 318.867 248.577 319.355Z" fill="#153243"/>
<path d="M447.611 522.904C446.879 524.612 445.902 525.954 445.414 525.954C443.706 525.954 436.872 541.574 435.652 547.92C433.211 560.611 435.408 581.845 439.191 583.065C439.923 583.309 440.533 584.285 440.533 585.261C440.533 587.946 451.272 598.197 458.228 602.102C466.038 606.495 477.509 608.936 490.566 608.936C501.305 608.936 522.294 605.763 522.294 604.054C522.294 603.566 524.002 602.834 525.955 602.346C528.274 601.98 529.616 600.881 529.616 599.661C529.616 597.343 452.736 519.853 450.418 519.853C449.685 519.853 448.343 521.195 447.611 522.904Z" fill="#153243"/>
</svg>
